<svg xmlns="http://www.w3.org/2000/svg" fill="none" viewBox="0 0 268 151" height="151" width="268">
<path fill="#4F535A" d="M75.0641 119.404C72.4499 116.57 70.0536 113.735 69.6179 113.081L68.5287 111.991V118.314V124.636H67.4394H66.3502V116.352V108.067H67.2216H68.093L72.4499 113.081C74.8463 115.698 77.0248 118.532 77.6783 118.968L78.5497 120.058V114.172V108.285H79.8568H81.1639V116.352V124.854H80.7282H80.2925L75.0641 119.404ZM133.665 119.404C131.051 116.352 128.655 113.517 128.219 113.081L127.348 111.991V118.096V124.2H126.041H124.734V115.916V107.631H125.605H126.476L129.526 111.119C131.269 113.081 133.665 115.698 134.755 117.006L136.933 119.404V113.517V107.631H138.022H139.112V116.352V124.854H138.676H138.24L133.665 119.404ZM148.915 124.636C148.043 124.418 146.954 124.2 146.301 123.764L145.647 123.328L145.429 122.238C145.211 121.584 145.211 121.148 145.211 121.148L145.429 120.93C145.647 120.712 145.647 120.712 146.301 121.148C147.608 122.02 149.35 122.456 150.658 122.456C151.529 122.456 152.182 122.02 152.836 121.584C153.49 120.712 153.49 119.404 153.054 118.532C152.618 118.096 151.747 117.442 150.658 117.006C148.479 116.134 147.172 115.262 146.518 113.954C146.301 113.299 146.301 113.081 146.301 111.991C146.301 110.901 146.301 110.683 146.518 110.247C147.39 108.503 149.35 107.413 151.747 107.631C153.272 107.849 155.014 108.503 155.014 108.939C155.014 108.939 155.014 109.375 154.797 109.593C154.797 109.811 154.579 110.247 154.579 110.465V110.901L154.143 110.683C153.272 110.029 151.311 109.593 150.222 110.029C148.915 110.465 148.261 111.991 148.915 113.081C149.35 113.735 150.004 114.172 151.529 114.826C152.182 115.044 153.054 115.48 153.49 115.698C154.361 116.134 155.232 117.224 155.668 117.878C155.886 118.532 155.886 118.532 155.886 119.84C155.886 121.148 155.886 121.366 155.668 121.802C155.232 122.674 154.361 123.546 153.707 123.982C152.182 124.636 150.222 124.854 148.915 124.636ZM166.996 124.636C164.818 124.418 163.075 123.11 162.203 121.366C161.55 120.058 161.55 119.622 161.55 113.517V107.849H162.857H163.946V113.517C163.946 118.968 163.946 119.186 164.164 119.84C164.818 121.584 166.56 122.456 168.957 122.238C170.482 122.02 171.353 121.366 172.007 120.276C172.224 119.622 172.225 119.622 172.225 113.735V107.849H173.532H174.839V113.735C174.839 120.276 174.839 120.276 174.185 121.584C173.532 122.892 172.007 123.982 170.264 124.418C169.175 124.636 167.868 124.636 166.996 124.636ZM226.469 119.622C224.072 116.788 221.458 113.954 221.023 113.299L219.933 111.991V118.096V124.2H218.626H217.319V115.916V107.631H218.191H219.062L222.983 111.991C225.162 114.39 227.34 117.006 228.212 117.878L229.519 119.404V113.517V107.631H230.608H231.697V116.352V124.854H231.479H231.044L226.469 119.622ZM245.422 124.636C242.59 124.2 240.193 122.674 238.886 120.276C237.579 118.096 237.579 114.608 238.668 112.427C239.757 110.247 241.718 108.721 244.114 107.849C244.986 107.631 245.204 107.631 246.729 107.631C248.471 107.631 249.561 107.849 250.868 108.503C251.521 108.721 251.739 108.939 251.739 109.157C251.739 109.593 251.303 111.119 251.303 111.119C251.303 111.119 250.868 110.901 250.432 110.683C248.254 109.593 245.422 109.811 243.461 110.901C242.154 111.773 241.282 112.863 240.847 114.39C240.411 115.48 240.411 117.442 240.847 118.532C241.936 121.366 244.55 122.892 247.6 122.674C248.907 122.674 249.779 122.456 250.65 122.02C251.303 121.802 251.303 121.802 251.521 122.02C251.739 122.238 251.739 122.238 251.739 122.456C251.739 122.456 251.521 122.892 251.521 123.328C251.303 123.982 251.303 124.2 250.65 124.418C249.561 124.636 247.164 124.854 245.422 124.636ZM0.995667 116.134V107.849H4.26339C7.53112 107.849 7.53112 107.849 8.62036 108.285C11.6702 109.157 13.6309 111.119 14.5023 113.954C14.7201 115.044 14.938 116.788 14.7201 117.878C14.2844 120.276 12.5416 122.456 10.1453 123.546C8.62036 124.2 7.96681 124.418 4.48124 124.418H1.21351L0.995667 116.134ZM7.53112 122.02C10.3631 121.366 12.1059 119.186 12.1059 116.134C12.1059 113.299 10.3631 110.901 7.31327 110.247C6.87757 110.247 5.78833 110.029 4.91694 110.029H3.17415V116.134V122.238H4.91694C6.22403 122.238 7.09542 122.02 7.53112 122.02ZM20.8199 116.134V107.849H25.3947H29.9695V108.939V110.029H26.7018H23.434V112.645V115.262H26.0482H28.6624V116.352V117.442H26.0482H23.434V120.058V122.674H27.1375H30.8409V123.764V124.854H25.8304H20.8199V116.134ZM36.0693 116.134V107.849H40.6441H45.2189V108.939V110.029H41.9512H38.6834V112.645V115.262H41.5155H44.3475V116.352V117.442H41.5155H38.6834V120.712V124.418H37.3763H36.0693V116.134ZM50.8829 116.134V107.849H55.2399H59.5969V108.939V110.029H56.3292H53.0614V112.645V115.262H55.8935H58.7255V116.352V117.442H55.8935H53.0614V120.058V122.674H56.7648H60.4683V123.764V124.854H55.4578H50.4472L50.8829 116.134ZM87.4815 116.134V107.849H90.7492C94.0169 107.849 94.0169 107.849 95.1062 108.285C98.3739 109.375 100.335 111.337 100.988 114.39C101.206 115.698 101.206 117.66 100.77 118.75C100.117 120.712 98.8096 122.456 96.6311 123.328C94.8883 124.2 94.2348 124.2 90.5313 124.418H87.2636V116.134H87.4815ZM94.0169 122.02C95.9776 121.584 97.2846 120.494 97.9382 118.968C98.3739 117.878 98.5917 117.006 98.5917 115.698C98.3739 113.517 97.5025 111.773 95.5419 110.901C94.4526 110.247 93.5812 110.247 91.6206 110.029H89.8778V116.134C89.8778 119.404 89.8778 122.238 89.8778 122.238C89.8778 122.456 92.9277 122.238 94.0169 122.02ZM115.366 116.134V107.849H116.673H117.98V116.134V124.418H116.673H115.366V116.134ZM181.374 116.134V107.849H184.206C186.167 107.849 187.256 107.849 187.692 108.067C188.999 108.503 190.306 109.375 190.742 110.683C190.959 111.337 191.177 111.555 191.177 112.645C191.177 113.735 191.177 113.954 190.959 114.608C190.524 115.262 189.652 116.352 188.999 116.788C188.781 116.788 188.563 117.006 188.563 117.006C188.563 117.006 189.652 118.75 191.177 120.712C192.702 122.674 194.009 124.418 194.009 124.418C194.009 124.418 193.791 124.636 192.702 124.636H191.177L188.563 120.712L185.949 117.006H184.86H183.77V120.712V124.418H182.681H181.374V116.134ZM187.256 114.826C187.91 114.608 188.345 113.954 188.563 113.517C188.563 113.299 188.781 112.863 188.781 112.645C188.781 111.991 188.563 111.337 188.127 110.901C187.474 110.247 187.038 110.247 185.295 110.029H183.77V112.645V115.262H185.295C186.385 114.826 187.038 114.826 187.256 114.826ZM197.277 124.2C197.277 124.2 198.802 120.276 200.763 115.698L204.03 107.413H204.684H205.337L208.605 115.698C210.348 120.276 211.873 123.982 212.091 124.2C212.091 124.418 211.873 124.418 211.001 124.418H209.694L209.259 123.546C209.041 123.11 208.605 122.02 208.387 121.366L207.516 119.84H204.466H201.416L200.545 122.02L199.673 124.2H198.366C197.277 124.418 197.277 124.418 197.277 124.2ZM206.645 117.442C206.645 117.224 205.991 115.916 205.555 114.608L204.466 111.991L203.377 114.826C202.723 116.352 202.288 117.66 202.288 117.66C202.288 117.66 203.159 117.66 204.466 117.66H206.645V117.442ZM257.403 116.134V107.849H261.978H266.553V108.939V110.029H263.285H259.8V112.645V115.262H262.414H265.028V116.352V117.442H262.414H259.8V120.058V122.674H263.503H267.206V123.764V124.854H262.196H257.185L257.403 116.134ZM86.8279 44.8418V9.95898L95.1062 18.2437L103.384 26.5283V44.6238V62.7193L95.1062 71.004L86.8279 79.2887V44.8418ZM115.366 44.6238V29.1446H130.833H146.301V44.6238V60.1031H130.833H115.366V44.6238Z"></path>
<path fill="#3E758A" d="M104.038 80.3793L112.316 72.0946H135.19H158.064V44.8424V17.3721H135.19H112.534L104.256 9.08742L95.7597 0.802734H135.19H174.621V44.8424V88.882H135.19H95.7597L104.038 80.3793Z"></path>
<path fill="#9B9B9B" d="M246.511 145.567C244.332 143.169 242.372 140.771 241.718 140.116C241.283 139.462 240.847 139.026 240.847 139.026C240.847 139.026 240.847 141.425 240.847 144.259V149.491H240.193H239.54V143.169V136.846H239.975H240.411L244.115 141.207C246.075 143.605 248.036 145.785 248.472 146.221C248.907 146.657 249.125 147.093 249.125 147.093C249.125 147.093 249.125 144.913 249.125 142.079V137.064H249.779H250.432V143.605C250.432 149.273 250.432 150.145 250.214 150.145C250.432 149.927 248.689 148.183 246.511 145.567ZM43.0405 149.709C38.6835 148.837 36.2872 144.259 38.4657 140.116C38.9014 139.026 40.2085 137.936 41.0798 137.282C44.1297 135.538 48.051 136.628 50.0116 139.462C50.883 140.552 51.1009 141.643 51.1009 143.169C51.1009 144.477 50.883 145.349 50.2295 146.439C48.9224 148.837 45.8725 150.363 43.0405 149.709ZM45.8725 148.401C46.7439 148.183 47.6153 147.747 48.2688 147.093C49.3581 146.003 49.7938 144.695 49.7938 143.169C49.7938 142.079 49.5759 141.425 49.3581 140.77C48.9224 140.116 48.051 139.026 47.3974 138.59C44.3476 136.846 40.6441 138.372 39.5549 141.643C39.3371 142.733 39.3371 144.259 39.5549 145.131C40.2085 146.875 41.5155 148.183 43.2583 148.619C43.694 148.619 45.0011 148.619 45.8725 148.401ZM103.602 149.709C100.335 148.837 98.1561 146.221 98.374 142.733C98.5918 140.116 100.117 137.936 102.731 136.846C103.602 136.41 103.602 136.41 105.345 136.41C106.87 136.41 107.088 136.41 107.959 136.628C109.266 137.064 109.266 137.064 109.266 137.718C109.049 138.372 109.049 138.372 108.395 138.154C106.652 137.282 104.474 137.282 102.731 138.154C102.077 138.59 100.988 139.462 100.77 140.116C99.8989 141.861 99.8989 144.041 100.77 145.785C101.206 146.439 102.077 147.311 102.949 147.747C104.474 148.619 106.87 148.619 108.613 147.747L109.049 147.529V146.003V144.695H107.306H105.563V144.041V143.387H107.959H110.356V146.003V148.619L109.484 148.837C108.395 149.491 107.306 149.709 105.781 149.709C104.692 149.927 104.256 149.709 103.602 149.709ZM160.025 149.709C158.718 149.273 157.847 148.837 156.975 147.965C155.668 146.657 155.015 145.349 155.015 143.387C155.015 141.425 155.45 140.116 156.975 138.808C158.5 137.282 160.025 136.846 162.421 136.846C163.729 136.846 165.471 137.282 165.689 137.718C165.689 137.936 165.471 138.808 165.471 138.808C165.471 138.808 164.818 138.59 164.382 138.372C163.511 138.154 163.293 137.936 162.204 137.936C159.372 137.936 157.411 139.462 156.757 141.861C155.886 144.913 157.629 147.747 160.679 148.619C161.986 148.837 163.946 148.837 165.253 148.183L165.689 147.965V148.183C165.689 148.401 165.689 148.619 165.471 148.837C165.471 149.273 165.253 149.273 164.818 149.491C163.729 149.927 161.55 149.927 160.025 149.709ZM176.146 149.709C173.75 149.273 171.789 147.311 171.135 144.913C170.917 143.823 170.917 141.861 171.353 140.989C172.007 139.462 173.096 138.154 174.621 137.282C175.928 136.628 176.799 136.41 178.106 136.628C180.067 136.628 181.374 137.282 182.681 138.59C183.988 139.898 184.642 141.207 184.642 143.169C184.642 145.131 183.988 146.439 182.681 147.747C180.721 149.491 178.542 150.145 176.146 149.709ZM178.76 148.401C180.285 147.965 181.592 146.875 182.246 145.567C183.553 142.733 182.463 139.462 179.849 138.154C177.671 137.064 175.057 137.5 173.532 139.462C170.917 142.515 172.225 147.311 176.146 148.401C176.799 148.619 178.106 148.619 178.76 148.401ZM195.317 145.785C194.227 143.605 193.138 141.425 192.92 140.77L192.484 139.68V140.552C192.484 140.989 192.267 143.169 192.049 145.567L191.831 149.709H191.177H190.524V149.491C190.524 149.273 190.742 146.439 190.96 143.169L191.395 137.064H191.831H192.267L194.445 141.643C195.752 144.041 196.841 146.439 197.059 147.093L197.495 147.965L197.713 147.529C197.931 147.093 199.891 142.733 201.852 138.808L202.723 137.064H203.159H203.595L204.03 142.951C204.248 146.221 204.466 149.055 204.466 149.273V149.927H203.813C203.159 149.927 203.159 149.927 203.159 149.709C203.159 149.491 202.941 147.965 202.941 146.003C202.723 144.041 202.723 142.079 202.506 141.207C202.506 140.334 202.288 139.898 202.288 140.116C202.07 140.552 200.109 144.913 198.802 147.529C197.713 149.709 197.495 149.927 197.277 149.927C197.059 149.927 197.059 149.273 195.317 145.785ZM0.777893 149.273C0.777893 149.055 2.08498 146.221 3.39207 142.733C4.69916 139.244 6.00625 136.628 6.00625 136.41H6.2241C6.2241 136.41 11.6703 149.273 11.6703 149.491C11.6703 149.491 11.4525 149.491 11.0168 149.491H10.3632L9.70968 147.747L9.05613 146.003H6.2241H3.39207L2.73853 147.747L2.08498 149.491H1.43144H0.777893V149.273ZM8.18474 144.913C8.18474 144.913 7.74904 143.823 7.31334 142.515C6.87765 141.207 6.2241 139.898 6.2241 139.68L6.00625 139.244L5.13486 141.643C4.69916 142.951 4.04562 144.259 4.04562 144.477C3.82777 145.349 3.60992 145.131 6.00625 145.131C7.31335 144.913 8.18474 144.913 8.18474 144.913ZM25.6126 143.169V136.846H28.8803H32.3659V137.5V138.154H29.5339H26.7019V140.334V142.515H29.0982H31.4945V143.169V143.823H29.0982H26.7019V146.875V149.927H26.0483H25.3948V143.169H25.6126ZM57.4185 143.169V136.628H59.8148C61.9933 136.628 62.2111 136.628 62.8647 136.846C63.5182 137.282 64.1718 137.718 64.6075 138.372C64.8253 138.808 64.8253 139.026 64.8253 139.898C64.8253 140.771 64.8253 140.989 64.6075 141.643C64.1718 142.297 63.7361 142.733 63.0825 143.169L62.6468 143.387L64.8253 146.439L67.0038 149.491H66.3503C65.9146 149.491 65.6967 149.491 65.4789 149.491C65.4789 149.491 64.3896 148.183 63.5182 146.875C62.6468 145.567 61.5576 144.041 61.3397 144.041C61.1219 143.823 61.1219 143.823 60.0327 143.823H58.9434V146.875V149.927H58.2899H57.6363L57.4185 143.169ZM61.7754 142.515C63.7361 141.861 63.9539 139.244 62.2111 138.372C61.5576 138.154 61.3397 138.154 60.2505 137.936H58.9434V140.334V142.515H60.2505C60.904 142.515 61.5576 142.515 61.7754 142.515ZM74.1928 143.823V137.936H72.0143H69.8358V137.282V136.628H75.0642H80.2926V137.282V137.936H78.1141H75.9356V143.823V149.709H75.282H74.6285L74.1928 143.823ZM85.7388 143.169V136.846H89.0065H92.2742V137.5V138.154H89.66H87.0459V140.334V142.515H89.2243H91.4028V143.169V143.823H89.2243H87.0459V146.221V148.619H90.0957H93.1456V149.273V149.927H89.4422H85.7388V143.169ZM116.891 143.169V136.628H119.287C121.466 136.628 121.684 136.628 122.337 136.846C123.644 137.5 124.298 138.59 124.298 139.898C124.298 140.334 124.298 140.771 124.08 140.989C123.862 141.643 123.209 142.515 122.555 142.951L121.902 143.387L124.08 146.439L126.259 149.491H125.605C125.169 149.491 124.951 149.491 124.734 149.491C124.734 149.491 123.644 148.183 122.555 146.439L120.377 143.605H119.287H118.198V146.657V149.709H117.545H116.891V143.169ZM121.466 142.297C122.555 141.861 122.991 140.771 122.773 139.68C122.555 139.026 122.337 138.59 121.684 138.372C121.03 138.154 120.812 138.154 119.723 137.936H118.416V140.334V142.733H119.941C120.595 142.515 121.03 142.515 121.466 142.297ZM130.616 149.709C130.616 149.709 131.705 146.657 133.23 143.169C135.408 137.718 135.844 136.628 136.062 136.628C136.28 136.628 136.715 137.718 138.894 142.951C140.201 146.439 141.508 149.273 141.508 149.491V149.709H140.854H140.201L139.547 147.965L138.894 146.221H136.062H133.23L132.576 147.965L131.923 149.709H131.269C130.833 149.709 130.616 149.709 130.616 149.709ZM138.24 144.913C138.24 144.913 137.805 143.823 137.369 142.515C136.933 141.207 136.28 139.898 136.28 139.68L136.062 139.244L135.844 139.68C135.844 139.898 135.408 141.207 134.755 142.297C134.319 143.605 133.883 144.695 133.665 144.913L133.448 145.131H135.626C137.369 144.913 138.24 144.913 138.24 144.913ZM211.437 143.169V136.628H213.834C216.012 136.628 216.23 136.628 216.666 136.846C217.319 137.064 217.973 137.718 218.408 138.59C218.626 139.026 218.626 139.244 218.626 140.116C218.626 141.207 218.408 141.861 217.537 142.515C216.666 143.387 216.012 143.387 214.269 143.387H212.744V146.439V149.491H212.091H211.437V143.169ZM216.012 142.297C216.884 141.861 217.319 141.207 217.319 140.334C217.319 139.462 217.101 139.026 216.666 138.59C216.012 138.154 215.576 137.936 214.051 137.936H212.744V140.334V142.733H214.269C215.141 142.515 215.576 142.515 216.012 142.297ZM223.637 146.657C224.29 144.913 225.597 142.079 226.251 140.116C227.34 137.282 227.776 136.628 227.776 136.628C227.776 136.628 227.994 136.846 228.212 136.846C228.429 137.282 233.44 149.491 233.44 149.709C233.44 149.709 233.222 149.709 232.786 149.709H232.133L231.479 147.965L230.826 146.221H227.994H225.162L224.508 147.965L223.855 149.709H223.201H222.548L223.637 146.657ZM229.954 144.913C229.954 144.913 229.519 143.823 229.083 142.515C228.647 141.207 228.212 139.898 227.994 139.68L227.776 139.026L227.558 139.68C227.34 140.116 226.905 141.425 226.469 142.515C226.033 143.605 225.597 144.695 225.597 144.695C225.597 144.695 226.469 144.695 227.776 144.695C229.083 144.913 229.954 144.913 229.954 144.913ZM261.325 146.657V143.605L259.364 140.989C258.275 139.462 257.185 137.936 256.968 137.5L256.532 136.846H257.403H258.275L260.235 139.68C262.196 142.515 262.196 142.515 262.414 142.297C262.414 142.079 263.503 140.77 264.374 139.462L266.335 136.846H266.989H267.642L267.424 137.282C267.206 137.5 266.117 139.026 265.028 140.77L262.85 143.823V146.875V149.927H261.978H261.325V146.657Z"></path>
</svg>
